/* XPM */
static char *ac3c87eba5dc454ee77fa56d9730058b[] = {
/* columns rows colors chars-per-pixel */
"16 16 126 2 ",
"   c #3526AF",
".  c #3A28B0",
"X  c #3E2AB1",
"o  c #432CB3",
"O  c #482EB4",
"+  c #482FB5",
"@  c #4C30B5",
"#  c #4D31B6",
"$  c #5133B7",
"%  c #5635B8",
"&  c #5636B8",
"*  c #5A37B9",
"=  c #5B38B9",
"-  c #5F39BA",
";  c #603ABB",
":  c #643CBC",
">  c #693FBD",
",  c #6740BD",
"<  c #6044BF",
"1  c #6D40BE",
"2  c #7142BF",
"3  c #7243BF",
"4  c #3177D4",
"5  c #3477D4",
"6  c #484FC2",
"7  c #4252C4",
"8  c #5053C4",
"9  c #5B55C5",
"0  c #664CC2",
"q  c #7243C0",
"w  c #7645C1",
"e  c #7746C1",
"r  c #744AC2",
"t  c #704EC4",
"y  c #7B48C2",
"u  c #7F49C3",
"i  c #6B55C6",
"p  c #615CC9",
"a  c #6C5ECA",
"s  c #725BC9",
"d  c #5E60C9",
"f  c #5966CD",
"g  c #4773D0",
"h  c #527FD4",
"j  c #7362CC",
"k  c #7960CB",
"l  c #756DCE",
"z  c #6F7BD4",
"x  c #7173D1",
"c  c #804AC3",
"v  c #844CC5",
"b  c #8A4FC7",
"n  c #8851C6",
"m  c #8E51C7",
"M  c #8553C8",
"N  c #8159C9",
"B  c #865AC9",
"V  c #845CCB",
"C  c #9253C8",
"Z  c #9353C9",
"A  c #9856CA",
"S  c #9C58CB",
"D  c #995ACC",
"F  c #A05ACC",
"G  c #A65DCE",
"H  c #AA5FCF",
"J  c #9C66D0",
"K  c #AE61D0",
"L  c #AF61D0",
"P  c #B464D2",
"I  c #B865D3",
"U  c #BD68D4",
"Y  c #C16AD5",
"T  c #2D85D9",
"R  c #2C8ADC",
"E  c #3380D6",
"W  c #3186D8",
"Q  c #2B92DE",
"!  c #3094DD",
"~  c #3795DC",
"^  c #3596DD",
"/  c #3598DD",
"(  c #37A4DF",
")  c #3CA1DF",
"_  c #1EB5E9",
"`  c #15BEEF",
"'  c #24A2E4",
"]  c #26A8E4",
"[  c #2CA9E3",
"{  c #38ACE2",
"}  c #2DB1E4",
"|  c #2EB7E4",
" . c #25BCE7",
".. c #37B4E3",
"X. c #4183D6",
"o. c #4D86D6",
"O. c #5587D6",
"+. c #508ED8",
"@. c #439DDC",
"#. c #6C89D7",
"$. c #7190D8",
"%. c #4CA2DC",
"&. c #43ABDE",
"*. c #47A8DF",
"=. c #46AEDF",
"-. c #53A8DD",
";. c #50ABDD",
":. c #47B4E0",
">. c #16C1EE",
",. c #1FC4EB",
"<. c #14CFEF",
"1. c #19CAED",
"2. c #16D3EE",
"3. c #17D5EE",
"4. c #1CD1EA",
"5. c #1ADDEB",
"6. c #0FC5F3",
"7. c #11CBF0",
"8. c #11C9F2",
"9. c #26C3E7",
"0. c #37C1E4",
"q. c #1BE0E9",
"w. c #1CE2E9",
"e. c #8483D6",
"r. c #8087D7",
"t. c #8C81D7",
/* pixels */
"  . X o + @ $ * = - : > > q e c ",
". X o + @ 7 6 Q - : > > q e y c ",
"X o + @ $ R 6.` 0 : / f e a s v ",
"o + @ $ % E 6.8.' 1 [ 2.,.2.j b ",
"+ @ 4 5 * ' >._ 0 d 1.2.2.,.n m ",
"@ $ T W ; ; 9 X.d 1.<.3.3.3.x Z ",
"$ % * ; : > 1 q w h 3.3.4...*.A ",
"% * 8 ! g 2 2 e o.2.O.4.l Z A S ",
"= - ! 7./ q y ~ 2.+.m l z =.D F ",
"- : 1 ~ p r ( 2.@.b m m =.5.-.G ",
": 1 1 2 t } 3.{ n V *.A #.:.J H ",
", , 2 i  .3.| n V %.5.0.-.G H L ",
"1 2 w  .3.9.N m =.w.5.q.$.H L P ",
"2 w y ) 9.k m m A ..q.q.e.L P I ",
"w c c v m m Z A S -.$.$.t.P I U ",
"y c v v m m A S F G H L P P U Y "
};
