/* XPM */
static char *_251a77836004c019814b6d68a5511ed[] = {
/* columns rows colors chars-per-pixel */
"64 64 200 2 ",
"   c #3525AF",
".  c #3826AF",
"X  c #3726B0",
"o  c #3927B0",
"O  c #3D29B1",
"+  c #442CB3",
"@  c #492FB4",
"#  c #4D31B6",
"$  c #4B3BBA",
"%  c #5233B7",
"&  c #5635B8",
"*  c #5937B9",
"=  c #5D39BA",
"-  c #643CBC",
";  c #693FBD",
":  c #4D46BF",
">  c #6D41BE",
",  c #7042BF",
"<  c #3D64CB",
"1  c #3E6ACE",
"2  c #2F7BD5",
"3  c #3276D3",
"4  c #3C74D2",
"5  c #337CD5",
"6  c #3C7AD3",
"7  c #464FC2",
"8  c #4B4EC2",
"9  c #5D4DC2",
"0  c #4D56C6",
"q  c #4159C6",
"w  c #4E5FCA",
"e  c #5253C4",
"r  c #5459C7",
"t  c #5C58C6",
"y  c #6D45C0",
"u  c #664EC3",
"i  c #7444C0",
"p  c #7947C2",
"a  c #744AC2",
"s  c #7D49C3",
"d  c #6253C5",
"f  c #6D54C6",
"g  c #6759C7",
"h  c #655DC9",
"j  c #6D5ECA",
"k  c #7C53C6",
"l  c #7A57C8",
"z  c #755ECA",
"x  c #795ACA",
"c  c #4562CA",
"v  c #4962CB",
"b  c #4D6CCE",
"n  c #5F66CC",
"m  c #536DCE",
"M  c #5C6CCD",
"N  c #4971D0",
"B  c #417CD4",
"V  c #4B7BD3",
"C  c #5474D0",
"Z  c #5B75D0",
"A  c #547AD2",
"S  c #5C7DD3",
"D  c #6462CB",
"F  c #6F65CC",
"G  c #656CCE",
"H  c #6B6ACD",
"J  c #7363CC",
"K  c #7962CC",
"L  c #716CCE",
"P  c #6474CF",
"I  c #7F6DD0",
"U  c #6D73D0",
"Y  c #6A7BD2",
"T  c #7473D1",
"R  c #7C74D1",
"E  c #727AD2",
"W  c #7C78D2",
"Q  c #844CC5",
"!  c #894FC6",
"~  c #8052C7",
"^  c #8D50C7",
"/  c #8E51C8",
"(  c #835ACA",
")  c #8E5BCB",
"_  c #9051C7",
"`  c #9354C9",
"'  c #9956CA",
"]  c #9D59CC",
"[  c #A45CCD",
"{  c #AA5ECF",
"}  c #AB5FD0",
"|  c #8260CC",
" . c #8C67CE",
".. c #836ACF",
"X. c #9463CE",
"o. c #8D6DD0",
"O. c #8B74D3",
"+. c #8179D4",
"@. c #AC60CF",
"#. c #AE61D0",
"$. c #A068D1",
"%. c #B363D2",
"&. c #BA66D3",
"*. c #BE68D4",
"=. c #C26AD6",
"-. c #2D86D9",
";. c #268EDD",
":. c #2F8FDC",
">. c #3D80D6",
",. c #3286D8",
"<. c #3B87D8",
"1. c #348BDA",
"2. c #3C89D8",
"3. c #2D93DD",
"4. c #3295DE",
"5. c #3C94DC",
"6. c #3B9DDD",
"7. c #3DA5DF",
"8. c #1E9CE3",
"9. c #2596E0",
"0. c #219CE3",
"q. c #2A9EE1",
"w. c #1EA2E6",
"e. c #16AFEC",
"r. c #1CAAE9",
"t. c #15B4ED",
"y. c #1EB4E9",
"u. c #16BCEE",
"i. c #1BBBEB",
"p. c #21A7E5",
"a. c #2DA4E2",
"s. c #24ABE5",
"d. c #2BABE3",
"f. c #31A2E0",
"g. c #39A6E0",
"h. c #33ADE2",
"j. c #39ABE0",
"k. c #2BB4E5",
"l. c #27B9E6",
"z. c #2CBBE6",
"x. c #23BDE9",
"c. c #35B4E2",
"v. c #3BB5E2",
"b. c #31B8E4",
"n. c #3ABCE2",
"m. c #4483D6",
"M. c #4C83D5",
"N. c #4989D7",
"B. c #458CD9",
"V. c #5686D6",
"C. c #528BD7",
"Z. c #4092DA",
"A. c #4A94DB",
"S. c #449DDC",
"D. c #4E9CDC",
"F. c #5493D9",
"G. c #5E97DA",
"H. c #5299DB",
"J. c #5B9BDA",
"K. c #6683D4",
"L. c #6982D5",
"P. c #648BD7",
"I. c #6E8BD7",
"U. c #7282D5",
"Y. c #7D82D5",
"T. c #718BD7",
"R. c #6095DA",
"E. c #6999DA",
"W. c #44A7DF",
"Q. c #49A4DD",
"!. c #4EACDE",
"~. c #55A3DD",
"^. c #5CA3DD",
"/. c #53AADD",
"(. c #45B3E0",
"). c #14C3EF",
"_. c #1CC4EC",
"`. c #14CEEF",
"'. c #1ACCEC",
"]. c #16D3EE",
"[. c #19D5ED",
"{. c #17D8EC",
"}. c #1ADCEB",
"|. c #0FC4F3",
" X c #10C6F2",
".X c #11CAF1",
"XX c #14D0F0",
"oX c #26C1E7",
"OX c #2CC2E6",
"+X c #2CCAE6",
"@X c #23C2E9",
"#X c #22CCE9",
"$X c #28CAE8",
"%X c #39C2E3",
"&X c #32C9E5",
"*X c #2CD1E6",
"=X c #24D2E8",
"-X c #29D3E8",
";X c #21DAE8",
":X c #1CE1EA",
/* pixels */
"          o o o O O O O + O + + @ + + @ @ # # # # # % % % % & & & * & = = = = = = - - - - ; - > > > ; > > , i i i i , p p p p s ",
"        o o o O O O O + O + + + + @ @ @ @ # # # % % % % % & & * * * = = = = = - - - - - - ; ; ; ; > > > , , , i , p i p p p s s ",
"        o o o O O O O O + + + + @ @ @ @ # # # # % % % % & & & * = = * = = = - - - - - > - - > ; > > > > > i , i p p p p p s s s ",
"    X X o O O O O + + + + + + + + @ # # # # # # % % % & & * * * * = = = - = = - - - - - > > > > > , , , , i i i i p p p s s s s ",
"    o O o O O O O + + + + + @ @ @ @ # # # # # % % % & & & * * * = = = = = - - - - - ; ; ; > > > > , , i i , p p p p s s s s s Q ",
". o o o O O + O O + + + + @ @ @ @ # # # # % % % % & 1 u.8 * = * = = = - - - - - > - ; ; > > > > > i , i p p , p p s p s s s s s ",
"o o O O O O O O + + + @ + @ @ @ # # # # % % % & & 5 |.|.c * = = = - - = - - - - ; ; - > > > > > i , i , i i p p p s s s s s Q Q ",
"o o O O O + + + + + + + @ @ @ # @ $ t.w.2 q 7 < w.|.|.|.1 = = = = = - - - - - ; - ; > > > > i , , i i i p p p p p s s s Q s Q Q ",
"O o O O O + + + + + @ @ @ @ # # # % e.|.|.|.|.|.|.|.|.|.4 = = = - - - - - ; ; 4.p.d > > > , , i i i , p p p s s s s s s Q Q Q Q ",
"o O + O + O + + + + + @ @ # # # # # 3 |.|.|.|.|. X|. X|.3.- = = - - - - - ; ; a.`._.m ; , > i , , i p p p s s s s s s Q Q Q Q Q ",
"O + O + O + + @ @ @ @ @ # @ % # % % $ |.|.|.|.|.|..X|..X X0 - - - - - - - ; ; a.`.`..X5.a , p , p p p p p p j M.F s Q Q Q Q Q Q ",
"O O O + + + + + @ @ @ # # # % # % % & r.|.|.|.|.|.|. X X.X).4 - - - - - ; ; > q. X`.`.`.l.h , , p i p j B.l.].].A Q Q s Q Q Q Q ",
"+ O + + + + @ @ @ @ @ # # # % % % % & r.|.|. X X X X X X X X.Xs.r ; ; ; ; ; > f.`.`.XXXX`.`.5.n M N.l.XX].].].[.l Q Q ^ Q Q Q _ ",
"O + + + + + @ @ # @ # @ # % % % % & : |.|. X X X X X X.X X.X.X.Xi.- ; ; ; ; > q..X`.`.XX`.`.XX].XX].].].[.].{.h.Q Q Q Q Q ^ Q ^ ",
"+ + + + @ @ @ @ @ # # % % % % % & & 0.|.|. X X X X.X X.X.X.Xi.<.d ; ; ; y > > f.XXXXXXXX`.`.].].].].].].].].].A Q Q Q Q Q _ _ _ ",
"+ + + + @ @ @ # @ % # % % % % % % 1 |.|.|. X X X X X X.Xi.b - - ; ; ; ; > > i f.XXXXXXXX`.].].`.XX].].].].].[.k Q Q Q Q ^ Q _ Q ",
"+ + + @ @ @ # # # # # % & # & & & e.|.|. X|..X X|..X X).e - ; ; ; > ; ; > > , _.XX`.XXXXXX].].].].].].].].].j.Q ^ Q ^ Q ^ Q _ ^ ",
"+ + @ @ @ # # # 8.$ # & & & & & * v 1 v 0 c 1. X.X X.X4.- ; - ; > ; , , , , V `.`.XX].].].XX].].{.].].{.{.{.S Q Q ^ ! ! ^ ^ ^ _ ",
"@ + @ @ @ # # 2 |.2 % & & & & & * * = = = = - w  X.X XN ; ; ; ; ; > ; , , B.`.XX].`.XX`.XX].].].{.].].{.[.].J ! Q Q ^ ! ^ ^ ` ^ ",
"@ @ @ # # ;.e.|.|.|.0.3 & & & & = * = = = - = - N .X.X9 ; ; > > > , , t k.`.`.].XX].].XX].].].].].].`.{.].].L ! ^ ! ^ ^ ^ ^ ` ` ",
"@ @ # # # < |.|.|.|.|.3 & * * * * = = - - - - - - <.p.; > ; ; ; > , V '.XXXXXXXX`.].].`.].].].].{.].{.[.].{.S.^ ! ! ^ ^ / ` ^ ` ",
"@ # # # # % 8.|.|.|.;.& * * * = = = = = - = - - - ; ; ; ; > , , u a.`.`.XX].XX].].].].].XX}.].].].{.].{.{.{.{.U ^ ^ ^ ^ ` _ ` ` ",
"@ # # # % # 9.|.|.|.5 * * * * = = = = - - - - - - ; ; ; > > ; , i.`.`.XXXXXX`.XX].].].].].].].].{.].{.{.{.{.{.$X( / / ` ` ` ` ` ",
"@ # # # % # ;.< 7 -.,.* * * = = = - - - - - - - ; > ; > ; > i ; m f.'.XXXX].].].XX].].].].].{.].].{.[.{.{.{.{.{.b./ / / ` ` ` ' ",
"# # % % % % % & & & * * = = = = - - - - - - ; ; ; ; ; > ; i > i , , a M 5._.`.[.].].].].].{.].}.].].].}.}.{.}.}.}.H.` ` ` ` ' ` ",
"% # % % & % & & * * * = * = = - = - - - - ; ; ; ; ; ; > y > i i p p i p p G '.`.].].].{.{.].{.{.{.}.{.].}.{.].}.}.}.E _ ` ' ' ' ",
"# % % % & & & * * * * = = - = - - - - - ; ; ; ; ; , , i i , i i , p , p C [.].].[.].].].].{.[.[.[.{.[.}.}.].{.{.}.}.$X' ' ` ' ' ",
"% % % & & & & * = * = = = = - - - - - - ; ; ; ; , ; , > ; i i i p p p N.`.].].].].].{.].{.].{.{.{.OXF.Y Y Y L.Y L.K.E ' ` ' ' ' ",
"% % & & & & * * 0 p.e - = - - - - - - ; ; ; ; , ; i , i , i i p p s 6.].].].].].`.b.].[.[.{.{.].c./ ! / / ` / ` ` ` ` ' ' ' ' ] ",
"% & & & & * * = 0 |. X6 = - - v 1.B ; ; ; ; > ; ; i i , i i i p a h.`.].].].].[.S.l ].{.{.{.{.=X( ^ / / / / ` ` ' ` ' ' ' ' ] ] ",
"% & & & * * * = 0  X X Xy.q.u..X.XN - ; ; > , > i , i , i i p f l.].].].].].{.g.Q Q b.[.{.{.{.U ^ / / / ` ` ' ` ` ' ' ' ' ' ] ] ",
"& & * * * = = = 0 |. X.X X.X.X.X).y ; y i ; , , , i i i i p h @X].XX].].].].h.~ Q Q F.{.{.{.S.^ _ / / ` / ` ` ` ` ' ' ] ' ] ] ] ",
"& * * * = = = - ,.|..X.X.X`..X.X4.; ; > > , > y p , , p , M '.].].].].].].z.k Q Q ! z ].{.OX/ ^ / ` / ` ` ` ` ..v.' ' ] ] ] [ [ ",
"& * * = = & 9 :.|..X.X.X.X.X.X.Xm.> ; > > , , i , , p , V.`.`.].].].`.].oXx Q Q Q ! ! OX[.K ^ ^ ` / ` ` ` ` X.+X}.X.] ] ] ] ] ] ",
"* * * = * w t. X X`..X.X X.X`..Xi.u ; , , i i i p , , A.].].].].].].].#Xz Q Q Q ! ! ! T T ^ ^ ^ _ ` P.L.R R n.}.}.W ] ] ] ] [ [ ",
"* * = = = ,.u..X.X.X.X`..X.X X`.`.d.y > y i , i , s 6.].`.].].].].].[.F Q Q Q _ ! ! ! ^ _ _ ^ ` ` ` v.}.}.}.:X:X:X~.] ] [ [ [ [ ",
"= = = = = - - e >.u..X.X.X.X`.`.`..X5.i , i i p a h.`.].].].].`.].'.U Q Q Q ^ Q ! ^ ^ ^ ^ ` _ ` ` ` ..{.}.:X:X}.:X:X!.o.[ [ [ [ ",
"= = = = - - - - - w XX.X.X`.5.V m.m.V i i i p g x.[.].].[.`.].{.].S Q Q Q Q Q ^ ! ^ ^ ^ _ _ ` ` ` ' ` !.:X}.}.:X:X:X:X;X!.[ [ [ ",
"= = - - - - - - - - y..X.Xb i ; ; i y i i i D _.XX].].].`.{.{.`.V.Q Q Q Q Q _ ^ ! ^ ^ ^ ` ` ` ` ` ' ' P.}.:X:X}.:X:X:X*XY.[ [ [ ",
"= = - = - - - - ; y 2.`.5.; > > i , i i p M '.XX].XX].].].].].A.Q Q Q Q _ _ Q ^ ^ ` _ ` ^ ` ` ` ` ' ' (.:X}.:X:X:X:X^.[ [ [ { { ",
"- - - - - - ; ; ; ; t d.> > , i i i p i M.`.].].].].].].{.].W.Q Q Q ^ Q ! ! ^ ^ / ` / ` ` ` ' ' ' '  .}.:X}.:X:X:X%X[ [ { { [ @.",
"- = - - - ; - ; ; ; > > > y > i , i p Z.`.].].`.].].].].].j.! Q Q Q Q _ ! ! ^ / ^ ` _ ` ` ` ` ' ' ] J.;X%X/.%X:X:X/.[ [ { [ { @.",
"= - - - - ; ; ; > > > > , , i , i y f.`.].].].].].].].].b.k Q Q Q _ ^ ^ ! H.n./ ` ` ` ` ` ' ` ' ' ] X.X.] ] [ /.:X^.@.{ { [ @.{ ",
"- - - - ; ; ; ; > ; , , , i i i a k.XXXXXX].].].].].].l.k Q Q Q Q Q ^ Q / $X{.H.` ` ` ` ` ' ' ' ' ] ] ] ] [ [ [ ^.T.{ { { @.@.@.",
"- - - ; ; ; > > ; , , i , p p g x.].`.].].`.].].`.[.$Xx Q Q ! ! ^ _ ^ ^ T {.}.}.E ` ' ` ' ] ' ] ] ] ] [ [ ] [ [ [ [ [ { @.@.@.#.",
"- - ; ; ; ; > ; , y , , , , n '.XXXX].].].].].{.[.'.J Q Q ! ! ! ^ ! ^ ^ Q.}.}.}.=XI ` ` ` ' ] ] ] ] ] [ [ [ [ [ { } } } @.@.#.#.",
"; ; ; ; > ; , > , , i , p C `.`.`.].].].].].].].`.H Q Q ! ! ! ! ^ ! ^ | [.}.}.{.}.}.(.G.R.G.G.T.] ] [ [ [ [ [ { { } } } #.#.#.%.",
"- ; ; ; > ; > i > i i , M.XX].`.].].].].].].].[.P ! Q Q ! ! ! ! ^ _ Y $X{.}.}.}.}.}.}.:X:X:X}.&X[ [ ] [ } [ [ { [ { } } #.#.%.#.",
"; ; ; > > i > i y i i 5.XXXX].XX].].].].].}.XXS Q Q Q ! ! ! ( L.7.=X}.}.}.}.}.}.}.}.:X}.:X:X;XO.] [ [ [ [ { { { { { @.#.#.} %.%.",
"; > ; y > > , i i , h.].`.].].].].].].].].].C.Q Q Q ! ! ! ^ OX}.{.{.}.{.}.}.:X}.:X:X}.:X:X:XT.] [ [ [ [ { [ { { { #.#.#.%.%.%.%.",
"; > > > > i i , i B.`.`.XX].].].].].].[.].D.Q Q Q ^ ! ^ ! ^ T $X}.{.}.}.}.}.}.}.}.:X:X}.:X~.[ [ [ [ [ [ { { { } #.#.#.#.%.%.%.%.",
"> ; , , , , i i i x.`.`.].XX].].].].].[.g.Q ! ! Q ! ! ! ^ ^ ^ ) Q.}.}.}.}.}.:X}.:X}.:X:X:X .] [ [ { [ { { { } #.#.#.%.%.%.%.%.%.",
", ; , i , , p i , `.`.].XXXX{.].].].].h.Q Q ! ! ! ^ ^ ^ / / / / ` L.}.:X:X}.}.}.}.:X:X:X:X[ [ [ [ { { { { } #.#.#.%.%.%.%.%.%.&.",
"> i > i i i p , s h.`.].].{.].].].[.z.~ Q ! ! ! ^ ^ ^ ^ ^ ` ` ` ` ` !.}.}.}.:X:X:X:X:X:X:XO.[ { [ { { @.#.{ #.#.#.#.%.%.%.&.%.&.",
", , i i i i p i , H `.].`.{.].{.XXoXl Q ! ! ! ! ! ^ ^ _ ` _ ` ` ` ' U.}.}.:X}.:X:X:X:X:X:X^.[ [ { { @.{ } #.%.#.%.%.%.&.&.%.&.&.",
", , , i i p p p , s Z [.].`.{.`.#Xz Q ! ! ~ ! ^ ^ ^ _ _ ^ ` ' ` ` ` E }.:X:X:X:X:X:X:X:X:X*X{ { [ @.{ @.#.#.@.%.%.%.%.%.%.&.*.&.",
", , i p , p Q , Q p p j 7.'.'.7.x Q ^ Q Q ^ ^ ^ Q _ ` ` ` ` ` ' ' ' U.:X}.;X-XJ.+.Y.^.*X:X:XO.{ { } #.#.#.#.%.%.%.%.%.&.&.&.&.*.",
"i p , , Q p , Q , Q Q p Q Q Q Q Q Q Q ^ ! ^ ^ ^ ` _ _ ` ` ` ` ` ' ' U.}.:X(.X.[ [ [ [ [ O.E.$.{ @.#.#.#.%.%.%.%.%.%.&.%.&.&.&.*.",
"i p p p , p Q , Q Q s s Q Q Q Q Q ! Q ! ^ ^ ^ ^ ` _ ` ` ' ` ' ' ' ' R -XI.[ [ [ [ [ [ [ @.{ { @.@.#.#.#.%.%.%.&.&.&.&.&.*.&.*.*.",
"i i p , p Q , Q Q p Q Q Q Q Q Q ^ Q ^ ! ^ ^ _ _ ` ` ` ' ` ' ' ' ] ] ] [ ] ] ] [ [ [ { { { @.@.@.#.#.%.#.#.%.%.%.%.&.&.&.&.*.*.*.",
"p i p p Q Q p Q , Q s Q Q Q Q ! ! ^ ^ ^ ^ _ ` ` _ ` ` ` ` ' ' ' ' ] ] ] [ [ [ [ [ [ { { { } @.#.#.%.#.%.%.%.&.%.%.&.&.*.*.*.=.=.",
"p p p p , Q Q , Q Q Q Q Q Q ! Q Q ^ ^ ^ _ _ ` ` ` ` ` ' ' ' ] ] ] ] [ ] ] [ [ [ { [ { { } @.#.@.#.%.%.%.%.%.&.&.&.*.&.*.*.*.=.=.",
"p p p p Q , s Q Q Q Q ! ! ! ! ! ^ ^ _ / _ _ ` ` ` ' ' ' ' ' ' ] ] [ [ [ [ [ [ [ { { { } #.#.#.%.%.%.%.%.%.&.&.&.*.&.*.*.=.=.=.=.",
"p p p Q Q , Q Q Q Q Q Q ! ! ! ! ^ _ _ / / ` ` ` ` ` ' ' ' ] ] ] [ ] [ [ [ [ [ { { { } } #.#.@.%.%.%.%.%.&.%.&.&.&.*.*.*.*.=.=.=."
};
