/* XPM */
static char *_50c312b5790475493f86a084a371c20[] = {
/* columns rows colors chars-per-pixel */
"32 32 165 2 ",
"   c #3625AF",
".  c #3A27B0",
"X  c #3D29B1",
"o  c #442CB3",
"O  c #492FB4",
"+  c #4D31B6",
"@  c #4E3EBC",
"#  c #5233B7",
"$  c #5535B8",
"%  c #5937B9",
"&  c #5D39BA",
"*  c #643CBC",
"=  c #693FBD",
"-  c #5945BF",
";  c #6D41BE",
":  c #7142BF",
">  c #3E5BC7",
",  c #3761C9",
"<  c #3A61CA",
"1  c #3768CD",
"2  c #3C69CD",
"3  c #3C70CF",
"4  c #3177D4",
"5  c #3278D3",
"6  c #4549C0",
"7  c #4C4EC1",
"8  c #5E4BC2",
"9  c #445FC9",
"0  c #5453C4",
"q  c #5B52C4",
"w  c #575CC8",
"e  c #674DC3",
"r  c #7444C0",
"t  c #7946C2",
"y  c #744BC3",
"u  c #7D49C3",
"i  c #6353C5",
"p  c #6D51C5",
"a  c #665EC9",
"s  c #6A5EC9",
"d  c #7151C4",
"f  c #7A54C6",
"g  c #7C57C8",
"h  c #7A5AC9",
"j  c #4061CA",
"k  c #4E66CB",
"l  c #446ECF",
"z  c #5563CB",
"x  c #5A62CA",
"c  c #5E6CCE",
"v  c #4D73D0",
"b  c #4378D3",
"n  c #4C7ED3",
"m  c #5076D1",
"M  c #537CD3",
"N  c #6064CB",
"B  c #6E69CD",
"V  c #7462CC",
"C  c #7C6BCF",
"Z  c #6B72D1",
"A  c #6178D2",
"S  c #6D7DD4",
"D  c #7C76D2",
"F  c #854CC5",
"G  c #8A4FC6",
"H  c #8252C7",
"J  c #8D50C7",
"K  c #8556C9",
"L  c #8C52C8",
"P  c #9353C9",
"I  c #9A57CB",
"U  c #905ECB",
"Y  c #9D59CC",
"T  c #A45BCD",
"R  c #AA5FCF",
"E  c #8267CE",
"W  c #8965CD",
"Q  c #9761CE",
"!  c #9C62CE",
"~  c #9D66D0",
"^  c #926CD1",
"/  c #9B6ED2",
"(  c #8B75D4",
")  c #817FD5",
"_  c #AE61D0",
"`  c #B363D2",
"'  c #B966D3",
"]  c #BE68D5",
"[  c #C26AD6",
"{  c #2C85D8",
"}  c #258ADC",
"|  c #3D81D6",
" . c #3289DA",
".. c #3B8CD9",
"X. c #2791DE",
"o. c #3392DC",
"O. c #3E99DC",
"+. c #3AA2DF",
"@. c #239CE2",
"#. c #2C9EE0",
"$. c #1DAAE7",
"%. c #1AACE9",
"&. c #1CB4EA",
"*. c #16BAEE",
"=. c #0FBCF1",
"-. c #12BCF0",
";. c #2DA6E2",
":. c #27ABE4",
">. c #2EABE3",
",. c #37A4E0",
"<. c #3AABE1",
"1. c #26B5E7",
"2. c #2CB4E6",
"3. c #25BDE7",
"4. c #2BBBE5",
"5. c #20B3E9",
"6. c #35B2E3",
"7. c #31BDE4",
"8. c #3AB9E3",
"9. c #4980D5",
"0. c #448FD8",
"q. c #4A8DD8",
"w. c #5583D5",
"e. c #5A84D5",
"r. c #518CD8",
"t. c #4896DA",
"y. c #5393D9",
"u. c #5C9FDC",
"i. c #668BD7",
"p. c #6A8CD6",
"a. c #7287D6",
"s. c #748BD8",
"d. c #6192D9",
"f. c #6A93D9",
"g. c #6499DA",
"h. c #41A1DD",
"j. c #4BA7DE",
"k. c #4CACDF",
"l. c #53ABDE",
"z. c #42ABE0",
"x. c #48B5E0",
"c. c #43BBE1",
"v. c #16C2ED",
"b. c #1AC7ED",
"n. c #15CEEE",
"m. c #1CCAEB",
"M. c #16D3EE",
"N. c #19D3EC",
"B. c #1ADDEB",
"V. c #0FC4F3",
"C. c #10C7F2",
"Z. c #11CAF1",
"A. c #2AC5E6",
"S. c #2DCEE6",
"D. c #22C2E9",
"F. c #27CFE8",
"G. c #29CBE8",
"H. c #31C2E5",
"J. c #33CBE4",
"K. c #2ED1E5",
"L. c #28D9E7",
"P. c #21D2E9",
"I. c #28D3E8",
"U. c #22DAE8",
"Y. c #1CE1EA",
/* pixels */
"      X X o X o o O O + + # # % % % & & & * = = = r : r r r t u ",
"    . X X X o o O O + # # $ $ % & & * * * = = = = : : r t t u u ",
"  X . X o o o O O O + # @ @.9 % & & * * * = = e : : r r t t u F ",
". X X o o o O O , @.4 4 *.V.3 & & * * * = = = r : t t t u u u F ",
"X X o o o O O + 6 V.V.V.V.C. .* * * * w :.i r r r t u u u u F F ",
"X o o o O O + + # %.V.V.V.V.C.l * * = z Z.b.m r r t s q.w.F F F ",
"X o o O O + # # # %.V.C.Z.C.Z.Z.#.= = x n.n.n.>.O.3.M.M.e.F G G ",
"o o O O + + # # 2 V.C.C.V.Z.Z.o.w = : x Z.M.M.n.M.M.M.n.g F G G ",
"o O O < 1 # # % $.*.*.Z.Z.Z.k = ; ; ; 9.n.M.M.M.M.M.M.<.G G G L ",
"O O } =.-.{ # % % & * l C.5.= = ; ; n n.n.M.M.N.M.M.M.r.G G L P ",
"O + < V.V.j % % % & * * b ..= = i :.n.M.n.M.M.M.M.M.B.7.G L P P ",
"+ + > X.@.7 % % * * * * = = : : 1.n.n.M.M.M.M.M.B.M.M.B.y.P P P ",
"# # # $ % % & * * * = = = = = r r N 0.n.M.M.M.M.B.M.M.B.B.S P I ",
"# # $ $ % & & * * * = = : : r r r y +.M.M.M.B.M.M.P.A.A.G.8.I I ",
"# $ % 8 @.- * q 8 = = : : r r t d 2.M.M.4.N.M.B.<.L P P P I I I ",
"$ % % 7 C.*.&.Z.q = = : : r r s D.M.M.A.g 6.N.A.K P P P I I Y Y ",
"% & & l C.Z.Z.&.= : : : : : c m.n.M.D.h G e.N.C P P P W x.Y Y T ",
"% &  .n.Z.Z.Z.v.e : r r u M n.M.M.F.V H G K Z P P j.j.G.B.Q Y T ",
"& & 0 5 v.Z.C.n.;.: : r 0.M.M.M.m.B H G G J P P P i.B.Y.B.J.f.T ",
"& * * * | n.v q e r y +.M.M.M.N.Z G G J J P P P P D B.Y.Y.J.) R ",
"* * * = 0 ..r r r p 1.M.M.M.N.A F G J J P P P P I k.S.I.Y.( R R ",
"* * * : r ; r r a 3.M.M.M.M.e.F G G K 7.E P I I I Y T ! c.~ R _ ",
"* = : = r r r c m.n.M.M.N.r.G G J L S B.H.U Y I Y T T T R R _ _ ",
"= * : : r r 9.n.n.M.M.M.t.F G L J K 7.B.B.G.k.l.u.T T R R R _ ` ",
"= r : r r ..M.M.M.M.M.h.G G J A z.P.B.B.B.Y.Y.Y.g.T R R _ _ _ ` ",
"* r : r ..M.M.M.M.M.<.H G G J y.B.B.B.B.Y.Y.Y.x.T R R _ _ _ ` ' ",
"r r r r b.M.M.M.M.6.H J G L P P C F.B.B.B.Y.Y.s.R R _ _ _ ` ' ' ",
"r r r r ,.M.M.M.2.H G J L P P P I d.B.Y.Y.Y.Y.l.R _ _ _ ` ` ' ' ",
"r r t t f +.b.<.g G J J P P P I I p.B.U.k.l.K.L._ _ _ ` ` ' ' ] ",
": t t u u F F H G J J J P P P I Y a.c.^ T R R / _ ` ` ` ' ' ] ] ",
"u u t F F F G G G L P P P I I Y Y T T T R R _ _ _ ` ' ' ' ] ] [ ",
"t u u F F F G G G P P P P I I Y T T T T R _ _ _ ` ' ' ' ] ] [ [ "
};
